<svg data-diagram-id="fixture-er" data-diagram-type="er" data-diagram-family="graph-topology" data-diagram-grammar="entity-relationship" width="1000" height="560" viewBox="0 0 1000 560" xmlns="http://www.w3.org/2000/svg" role="img" aria-label="er diagram"><defs><marker id="arrow-fixture-er" markerWidth="8" markerHeight="6" refX="7" refY="3" orient="auto"><path d="M0 0L8 3L0 6Z" fill="#6f756d"/></marker><marker id="arrow-accent-fixture-er" markerWidth="8" markerHeight="6" refX="7" refY="3" orient="auto"><path d="M0 0L8 3L0 6Z" fill="#f05a36"/></marker><marker id="arrow-link-fixture-er" markerWidth="8" markerHeight="6" refX="7" refY="3" orient="auto"><path d="M0 0L8 3L0 6Z" fill="#315f9d"/></marker></defs><rect width="1000" height="560" fill="#f5f5f2"/><g data-object-id="er1" data-source-id="er1"><path data-connector="true" data-connector-source="deck" data-connector-target="slide" d="M 262 116 L 312 116" fill="none" stroke="#6f756d" stroke-width="1.5" marker-end="url(#arrow-fixture-er)"/><g data-object-id="er1-label" data-source-id="er1"><rect data-label-mask="true" x="289" y="88" width="46" height="18" rx="3" fill="#f5f5f2"/><text x="312" y="101" text-anchor="middle" font-family="monospace" font-size="9" fill="#6f756d">1:N</text></g></g><g data-object-id="er2" data-source-id="er2"><path data-connector="true" data-connector-source="slide" data-connector-target="object" d="M 312 116 L 296 116 Q 288 116 288 124 L 288 236 Q 288 244 280 244 L 262 244" fill="none" stroke="#6f756d" stroke-width="1.5" marker-end="url(#arrow-fixture-er)"/><g data-object-id="er2-label" data-source-id="er2"><rect data-label-mask="true" x="265" y="216" width="46" height="18" rx="3" fill="#f5f5f2"/><text x="288" y="229" text-anchor="middle" font-family="monospace" font-size="9" fill="#6f756d">1:N</text></g></g><g data-object-id="er3" data-source-id="er3"><path data-connector="true" data-connector-source="object" data-connector-target="asset" d="M 262 244 L 312 244" fill="none" stroke="#6f756d" stroke-width="1.5" marker-end="url(#arrow-fixture-er)"/><g data-object-id="er3-label" data-source-id="er3"><rect data-label-mask="true" x="289" y="216" width="46" height="18" rx="3" fill="#f5f5f2"/><text x="312" y="229" text-anchor="middle" font-family="monospace" font-size="9" fill="#6f756d">0:1</text></g></g><rect data-object-id="asset" data-source-id="asset" x="312" y="204" width="170" height="76" rx="7" fill="#ffffff" stroke="#6f756d"/><rect data-object-id="deck" data-source-id="deck" x="92" y="76" width="170" height="76" rx="7" fill="#fde8e1" stroke="#f05a36"/><rect data-object-id="object" data-source-id="object" x="92" y="204" width="170" height="76" rx="7" fill="#ffffff" stroke="#20231f"/><rect data-object-id="slide" data-source-id="slide" x="312" y="76" width="170" height="76" rx="7" fill="#ffffff" stroke="#20231f"/><text data-object-id="asset-text" data-source-id="asset" x="397" y="254.5" text-anchor="middle" font-family="Manrope" font-size="13" font-weight="700" fill="#20231f">Asset</text><text data-object-id="deck-text" data-source-id="deck" x="177" y="126.5" text-anchor="middle" font-family="Manrope" font-size="13" font-weight="700" fill="#20231f">Deck</text><text data-object-id="object-text" data-source-id="object" x="177" y="254.5" text-anchor="middle" font-family="Manrope" font-size="13" font-weight="700" fill="#20231f">Object</text><text data-object-id="slide-text" data-source-id="slide" x="397" y="126.5" text-anchor="middle" font-family="Manrope" font-size="13" font-weight="700" fill="#20231f">Slide</text></svg>
