<svg data-diagram-id="fixture-flowchart" data-diagram-type="flowchart" data-diagram-family="process-state" data-diagram-grammar="flowchart-terminals" width="1000" height="560" viewBox="0 0 1000 560" xmlns="http://www.w3.org/2000/svg" role="img" aria-label="flowchart diagram"><defs><marker id="arrow-fixture-flowchart" markerWidth="8" markerHeight="6" refX="7" refY="3" orient="auto"><path d="M0 0L8 3L0 6Z" fill="#6f756d"/></marker><marker id="arrow-accent-fixture-flowchart" markerWidth="8" markerHeight="6" refX="7" refY="3" orient="auto"><path d="M0 0L8 3L0 6Z" fill="#f05a36"/></marker><marker id="arrow-link-fixture-flowchart" markerWidth="8" markerHeight="6" refX="7" refY="3" orient="auto"><path d="M0 0L8 3L0 6Z" fill="#315f9d"/></marker></defs><rect width="1000" height="560" fill="#f5f5f2"/><g data-object-id="f1" data-source-id="f1"><path data-connector="true" data-connector-source="start" data-connector-target="frame" d="M 500 110 L 500 115 Q 500 120 495 120 L 480 120 Q 472 120 472 128 L 472 154" fill="none" stroke="#6f756d" stroke-width="1.5" marker-end="url(#arrow-fixture-flowchart)"/></g><g data-object-id="f2" data-source-id="f2"><path data-connector="true" data-connector-source="frame" data-connector-target="decide" d="M 500 222 L 500 266" fill="none" stroke="#6f756d" stroke-width="1.5" marker-end="url(#arrow-fixture-flowchart)"/></g><g data-object-id="f3" data-source-id="f3"><path data-connector="true" data-connector-source="decide" data-connector-target="ship" d="M 580 288 L 656 288 Q 664 288 664 296 L 664 440 Q 664 448 672 448 L 720 448" fill="none" stroke="#f05a36" stroke-width="1.5" marker-end="url(#arrow-accent-fixture-flowchart)"/><g data-object-id="f3-label" data-source-id="f3"><rect data-label-mask="true" x="641" y="420" width="46" height="18" rx="3" fill="#f5f5f2"/><text x="664" y="433" text-anchor="middle" font-family="monospace" font-size="9" fill="#f05a36">yes</text></g></g><g data-object-id="f4" data-source-id="f4"><path data-connector="true" data-connector-source="decide" data-connector-target="refine" d="M 420 312 L 348 312 Q 340 312 340 320 L 340 440 Q 340 448 332 448 L 280 448" fill="none" stroke="#6f756d" stroke-width="1.5" marker-end="url(#arrow-fixture-flowchart)"/><g data-object-id="f4-label" data-source-id="f4"><rect data-label-mask="true" x="317" y="420" width="46" height="18" rx="3" fill="#f5f5f2"/><text x="340" y="433" text-anchor="middle" font-family="monospace" font-size="9" fill="#6f756d">no</text></g></g><g data-object-id="f5" data-source-id="f5"><path data-connector="true" data-connector-source="refine" data-connector-target="frame" d="M 280 448 L 344 448 Q 352 448 352 440 L 352 208 Q 352 200 360 200 L 420 200" fill="none" stroke="#6f756d" stroke-width="1.5" stroke-dasharray="5 4" marker-end="url(#arrow-fixture-flowchart)"/><g data-object-id="f5-label" data-source-id="f5"><rect data-label-mask="true" x="328" y="172" width="48" height="18" rx="3" fill="#f5f5f2"/><text x="352" y="185" text-anchor="middle" font-family="monospace" font-size="9" fill="#6f756d">retry</text></g></g><rect data-object-id="decide" data-source-id="decide" x="420" y="266" width="160" height="68" rx="7" fill="#ffffff" stroke="#20231f"/><rect data-object-id="frame" data-source-id="frame" x="420" y="154" width="160" height="68" rx="7" fill="#ffffff" stroke="#20231f"/><rect data-object-id="refine" data-source-id="refine" x="120" y="414" width="160" height="68" rx="7" fill="#ffffff" stroke="#20231f"/><ellipse data-object-id="ship" data-source-id="ship" cx="800" cy="448" rx="80" ry="34" fill="#ffffff" stroke="#6f756d"/><ellipse data-object-id="start" data-source-id="start" cx="500" cy="76" rx="80" ry="34" fill="#fde8e1" stroke="#f05a36"/><text data-object-id="decide-text" data-source-id="decide" x="500" y="312.5" text-anchor="middle" font-family="Manrope" font-size="13" font-weight="700" fill="#20231f">Evidence enough?</text><text data-object-id="frame-text" data-source-id="frame" x="500" y="200.5" text-anchor="middle" font-family="Manrope" font-size="13" font-weight="700" fill="#20231f">Frame problem</text><text data-object-id="refine-text" data-source-id="refine" x="200" y="460.5" text-anchor="middle" font-family="Manrope" font-size="13" font-weight="700" fill="#20231f">Refine</text><text data-object-id="ship-text" data-source-id="ship" x="800" y="460.5" text-anchor="middle" font-family="Manrope" font-size="13" font-weight="700" fill="#20231f">Ship</text><text data-object-id="start-text" data-source-id="start" x="500" y="88.5" text-anchor="middle" font-family="Manrope" font-size="13" font-weight="700" fill="#20231f">Start</text></svg>
