<svg data-diagram-id="fixture-high-level" data-diagram-type="high-level" data-diagram-family="graph-topology" data-diagram-grammar="hub-and-spoke" width="1000" height="560" viewBox="0 0 1000 560" xmlns="http://www.w3.org/2000/svg" role="img" aria-label="high-level diagram"><defs><marker id="arrow-fixture-high-level" markerWidth="8" markerHeight="6" refX="7" refY="3" orient="auto"><path d="M0 0L8 3L0 6Z" fill="#6f756d"/></marker><marker id="arrow-accent-fixture-high-level" markerWidth="8" markerHeight="6" refX="7" refY="3" orient="auto"><path d="M0 0L8 3L0 6Z" fill="#f05a36"/></marker><marker id="arrow-link-fixture-high-level" markerWidth="8" markerHeight="6" refX="7" refY="3" orient="auto"><path d="M0 0L8 3L0 6Z" fill="#315f9d"/></marker></defs><rect width="1000" height="560" fill="#f5f5f2"/><g data-object-id="h1" data-source-id="h1"><path data-connector="true" data-connector-source="north-star" data-connector-target="author" d="M 452 244 L 452 172 Q 452 164 460 164 L 492 164 Q 500 164 500 156 L 500 108" fill="none" stroke="#6f756d" stroke-width="1.5" marker-end="url(#arrow-fixture-high-level)"/></g><g data-object-id="h2" data-source-id="h2"><path data-connector="true" data-connector-source="north-star" data-connector-target="review" d="M 580 272 L 662 272 Q 668 272 668 278 L 668 278 Q 668 284 674 284 L 756 284" fill="none" stroke="#6f756d" stroke-width="1.5" marker-end="url(#arrow-fixture-high-level)"/></g><g data-object-id="h3" data-source-id="h3"><path data-connector="true" data-connector-source="north-star" data-connector-target="share" d="M 516 316 L 516 388 Q 516 396 508 396 L 508 396 Q 500 396 500 404 L 500 452" fill="none" stroke="#6f756d" stroke-width="1.5" marker-end="url(#arrow-fixture-high-level)"/></g><g data-object-id="h4" data-source-id="h4"><path data-connector="true" data-connector-source="north-star" data-connector-target="learn" d="M 420 300 L 328 300 Q 320 300 320 292 L 320 292 Q 320 284 312 284 L 246 284" fill="none" stroke="#6f756d" stroke-width="1.5" marker-end="url(#arrow-fixture-high-level)"/></g><rect data-object-id="author" data-source-id="author" x="424" y="40" width="150" height="68" rx="7" fill="#ffffff" stroke="#20231f"/><rect data-object-id="learn" data-source-id="learn" x="96" y="248" width="150" height="68" rx="7" fill="#ffffff" stroke="#20231f"/><rect data-object-id="north-star" data-source-id="north-star" x="420" y="244" width="160" height="72" rx="7" fill="#fde8e1" stroke="#f05a36"/><rect data-object-id="review" data-source-id="review" x="756" y="248" width="150" height="68" rx="7" fill="#ffffff" stroke="#20231f"/><rect data-object-id="share" data-source-id="share" x="424" y="452" width="150" height="68" rx="7" fill="#ffffff" stroke="#20231f"/><text data-object-id="author-text" data-source-id="author" x="499" y="86.5" text-anchor="middle" font-family="Manrope" font-size="13" font-weight="700" fill="#20231f">Author</text><text data-object-id="learn-text" data-source-id="learn" x="171" y="294.5" text-anchor="middle" font-family="Manrope" font-size="13" font-weight="700" fill="#20231f">Learn</text><text data-object-id="north-star-text" data-source-id="north-star" x="500" y="292.5" text-anchor="middle" font-family="Manrope" font-size="13" font-weight="700" fill="#20231f">Trusted story</text><text data-object-id="review-text" data-source-id="review" x="831" y="294.5" text-anchor="middle" font-family="Manrope" font-size="13" font-weight="700" fill="#20231f">Review</text><text data-object-id="share-text" data-source-id="share" x="499" y="498.5" text-anchor="middle" font-family="Manrope" font-size="13" font-weight="700" fill="#20231f">Share</text></svg>
