<svg data-diagram-id="fixture-loop" data-diagram-type="loop" data-diagram-family="set-radial" data-diagram-grammar="feedback-loop" width="1000" height="560" viewBox="0 0 1000 560" xmlns="http://www.w3.org/2000/svg" role="img" aria-label="loop diagram"><defs><marker id="arrow-fixture-loop" markerWidth="8" markerHeight="6" refX="7" refY="3" orient="auto"><path d="M0 0L8 3L0 6Z" fill="#6f756d"/></marker><marker id="arrow-accent-fixture-loop" markerWidth="8" markerHeight="6" refX="7" refY="3" orient="auto"><path d="M0 0L8 3L0 6Z" fill="#f05a36"/></marker><marker id="arrow-link-fixture-loop" markerWidth="8" markerHeight="6" refX="7" refY="3" orient="auto"><path d="M0 0L8 3L0 6Z" fill="#315f9d"/></marker></defs><rect width="1000" height="560" fill="#f5f5f2"/><g data-object-id="loop-1" data-source-id="loop-1"><path data-connector="true" data-connector-source="observe" data-connector-target="orient" d="M 572 96 L 632 96 Q 640 96 640 104 L 640 276 Q 640 284 648 284 L 732 284" fill="none" stroke="#6f756d" stroke-width="1.5" marker-end="url(#arrow-fixture-loop)"/></g><g data-object-id="loop-2" data-source-id="loop-2"><path data-connector="true" data-connector-source="orient" data-connector-target="decide" d="M 732 284 L 660 284 Q 652 284 652 292 L 652 460 Q 652 468 644 468 L 572 468" fill="none" stroke="#6f756d" stroke-width="1.5" marker-end="url(#arrow-fixture-loop)"/></g><g data-object-id="loop-3" data-source-id="loop-3"><path data-connector="true" data-connector-source="decide" data-connector-target="act" d="M 432 468 L 372 468 Q 364 468 364 460 L 364 292 Q 364 284 356 284 L 272 284" fill="none" stroke="#6f756d" stroke-width="1.5" marker-end="url(#arrow-fixture-loop)"/></g><g data-object-id="loop-4" data-source-id="loop-4"><path data-connector="true" data-connector-source="act" data-connector-target="observe" d="M 272 284 L 332 284 Q 340 284 340 276 L 340 104 Q 340 96 348 96 L 432 96" fill="none" stroke="#f05a36" stroke-width="1.5" marker-end="url(#arrow-accent-fixture-loop)"/></g><rect data-object-id="act" data-source-id="act" x="132" y="248" width="140" height="68" rx="7" fill="#ffffff" stroke="#20231f"/><rect data-object-id="decide" data-source-id="decide" x="432" y="432" width="140" height="68" rx="7" fill="#ffffff" stroke="#20231f"/><rect data-object-id="observe" data-source-id="observe" x="432" y="60" width="140" height="68" rx="7" fill="#fde8e1" stroke="#f05a36"/><rect data-object-id="orient" data-source-id="orient" x="732" y="248" width="140" height="68" rx="7" fill="#ffffff" stroke="#20231f"/><text data-object-id="act-text" data-source-id="act" x="202" y="294.5" text-anchor="middle" font-family="Manrope" font-size="13" font-weight="700" fill="#20231f">Act</text><text data-object-id="decide-text" data-source-id="decide" x="502" y="478.5" text-anchor="middle" font-family="Manrope" font-size="13" font-weight="700" fill="#20231f">Decide</text><text data-object-id="observe-text" data-source-id="observe" x="502" y="106.5" text-anchor="middle" font-family="Manrope" font-size="13" font-weight="700" fill="#20231f">Observe</text><text data-object-id="orient-text" data-source-id="orient" x="802" y="294.5" text-anchor="middle" font-family="Manrope" font-size="13" font-weight="700" fill="#20231f">Orient</text></svg>
