<svg data-diagram-id="fixture-nested" data-diagram-type="nested" data-diagram-family="hierarchy" data-diagram-grammar="nested-boundaries" width="1000" height="560" viewBox="0 0 1000 560" xmlns="http://www.w3.org/2000/svg" role="img" aria-label="nested diagram"><defs><marker id="arrow-fixture-nested" markerWidth="8" markerHeight="6" refX="7" refY="3" orient="auto"><path d="M0 0L8 3L0 6Z" fill="#6f756d"/></marker><marker id="arrow-accent-fixture-nested" markerWidth="8" markerHeight="6" refX="7" refY="3" orient="auto"><path d="M0 0L8 3L0 6Z" fill="#f05a36"/></marker><marker id="arrow-link-fixture-nested" markerWidth="8" markerHeight="6" refX="7" refY="3" orient="auto"><path d="M0 0L8 3L0 6Z" fill="#315f9d"/></marker></defs><rect width="1000" height="560" fill="#f5f5f2"/><rect data-object-id="ecosystem" data-source-id="ecosystem" x="90" y="50" width="820" height="460" rx="12" fill="#f5f5f2" stroke="#d8dbd4"/><rect data-object-id="platform" data-source-id="platform" x="132" y="92" width="736" height="376" rx="12" fill="#ffffff" stroke="#d8dbd4"/><rect data-object-id="product" data-source-id="product" x="174" y="134" width="652" height="292" rx="12" fill="#f5f5f2" stroke="#d8dbd4"/><rect data-object-id="feature" data-source-id="feature" x="216" y="176" width="568" height="208" rx="12" fill="#ffffff" stroke="#f05a36"/><g data-object-id="parent-1-platform" data-source-id="parent-1-platform"><path data-connector="true" data-connector-source="ecosystem" data-connector-target="platform" d="M 910 280 L 910 536 Q 910 544 902 544 L 140 544 Q 132 544 132 536 L 132 280" fill="none" stroke="#6f756d" stroke-width="1.5" marker-end="url(#arrow-fixture-nested)"/></g><g data-object-id="parent-2-product" data-source-id="parent-2-product"><path data-connector="true" data-connector-source="platform" data-connector-target="product" d="M 868 280 L 868 700 Q 868 708 860 708 L 182 708 Q 174 708 174 700 L 174 280" fill="none" stroke="#6f756d" stroke-width="1.5" marker-end="url(#arrow-fixture-nested)"/></g><g data-object-id="parent-3-feature" data-source-id="parent-3-feature"><path data-connector="true" data-connector-source="product" data-connector-target="feature" d="M 826 280 L 826 676 Q 826 684 818 684 L 224 684 Q 216 684 216 676 L 216 280" fill="none" stroke="#6f756d" stroke-width="1.5" marker-end="url(#arrow-fixture-nested)"/><circle data-bridge="true" data-object-id="parent-3-feature-bridge-1" cx="826" cy="544" r="5" fill="#f5f5f2" stroke="#6f756d" stroke-width="1.5"/><circle data-bridge="true" data-object-id="parent-3-feature-bridge-2" cx="216" cy="544" r="5" fill="#f5f5f2" stroke="#6f756d" stroke-width="1.5"/></g><text data-object-id="ecosystem-text" data-source-id="ecosystem" x="108" y="77.5" text-anchor="start" font-family="Manrope" font-size="11" font-weight="700" fill="#6f756d">Ecosystem</text><text data-object-id="platform-text" data-source-id="platform" x="150" y="119.5" text-anchor="start" font-family="Manrope" font-size="11" font-weight="700" fill="#6f756d">Platform</text><text data-object-id="product-text" data-source-id="product" x="192" y="161.5" text-anchor="start" font-family="Manrope" font-size="11" font-weight="700" fill="#6f756d">Product</text><text data-object-id="feature-text" data-source-id="feature" x="234" y="203.5" text-anchor="start" font-family="Manrope" font-size="11" font-weight="700" fill="#f05a36">Feature</text></svg>
