<svg data-diagram-id="fixture-org-chart" data-diagram-type="org-chart" data-diagram-family="hierarchy" data-diagram-grammar="organization-levels" width="1000" height="560" viewBox="0 0 1000 560" xmlns="http://www.w3.org/2000/svg" role="img" aria-label="org-chart diagram"><defs><marker id="arrow-fixture-org-chart" markerWidth="8" markerHeight="6" refX="7" refY="3" orient="auto"><path d="M0 0L8 3L0 6Z" fill="#6f756d"/></marker><marker id="arrow-accent-fixture-org-chart" markerWidth="8" markerHeight="6" refX="7" refY="3" orient="auto"><path d="M0 0L8 3L0 6Z" fill="#f05a36"/></marker><marker id="arrow-link-fixture-org-chart" markerWidth="8" markerHeight="6" refX="7" refY="3" orient="auto"><path d="M0 0L8 3L0 6Z" fill="#315f9d"/></marker></defs><rect width="1000" height="560" fill="#f5f5f2"/><g data-object-id="parent-1-product" data-source-id="parent-1-product"><path data-connector="true" data-connector-source="ceo" data-connector-target="product" d="M 104 132 L 104 144 Q 104 152 112 152 L 140 152 Q 148 152 148 160 L 148 194" fill="none" stroke="#6f756d" stroke-width="1.5" marker-end="url(#arrow-fixture-org-chart)"/></g><g data-object-id="parent-2-technology" data-source-id="parent-2-technology"><path data-connector="true" data-connector-source="ceo" data-connector-target="technology" d="M 232 96 L 316 96 Q 324 96 324 104 L 324 220 Q 324 228 332 228 L 416 228" fill="none" stroke="#6f756d" stroke-width="1.5" marker-end="url(#arrow-fixture-org-chart)"/></g><g data-object-id="parent-3-operations" data-source-id="parent-3-operations"><path data-connector="true" data-connector-source="ceo" data-connector-target="operations" d="M 232 116 L 600 116 Q 608 116 608 124 L 608 220 Q 608 228 616 228 L 768 228" fill="none" stroke="#6f756d" stroke-width="1.5" marker-end="url(#arrow-fixture-org-chart)"/></g><g data-object-id="parent-4-design" data-source-id="parent-4-design"><path data-connector="true" data-connector-source="product" data-connector-target="design" d="M 148 264 L 148 326" fill="none" stroke="#6f756d" stroke-width="1.5" marker-end="url(#arrow-fixture-org-chart)"/></g><g data-object-id="parent-5-platform" data-source-id="parent-5-platform"><path data-connector="true" data-connector-source="technology" data-connector-target="platform" d="M 588 228 L 672 228 Q 680 228 680 236 L 680 352 Q 680 360 688 360 L 768 360" fill="none" stroke="#6f756d" stroke-width="1.5" marker-end="url(#arrow-fixture-org-chart)"/></g><rect data-object-id="ceo" data-source-id="ceo" x="60" y="62" width="172" height="70" rx="7" fill="#fde8e1" stroke="#f05a36"/><rect data-object-id="design" data-source-id="design" x="60" y="326" width="172" height="70" rx="7" fill="#ffffff" stroke="#20231f"/><rect data-object-id="operations" data-source-id="operations" x="768" y="194" width="172" height="70" rx="7" fill="#ffffff" stroke="#20231f"/><rect data-object-id="platform" data-source-id="platform" x="768" y="326" width="172" height="70" rx="7" fill="#ffffff" stroke="#20231f"/><rect data-object-id="product" data-source-id="product" x="60" y="194" width="172" height="70" rx="7" fill="#ffffff" stroke="#20231f"/><rect data-object-id="technology" data-source-id="technology" x="416" y="194" width="172" height="70" rx="7" fill="#ffffff" stroke="#20231f"/><text data-object-id="ceo-text" data-source-id="ceo" x="146" y="109.5" text-anchor="middle" font-family="Manrope" font-size="13" font-weight="700" fill="#20231f">CEO</text><text data-object-id="design-text" data-source-id="design" x="146" y="373.5" text-anchor="middle" font-family="Manrope" font-size="13" font-weight="700" fill="#20231f">Design</text><text data-object-id="operations-text" data-source-id="operations" x="854" y="241.5" text-anchor="middle" font-family="Manrope" font-size="13" font-weight="700" fill="#20231f">Operations</text><text data-object-id="platform-text" data-source-id="platform" x="854" y="373.5" text-anchor="middle" font-family="Manrope" font-size="13" font-weight="700" fill="#20231f">Platform</text><text data-object-id="product-text" data-source-id="product" x="146" y="241.5" text-anchor="middle" font-family="Manrope" font-size="13" font-weight="700" fill="#20231f">Product</text><text data-object-id="technology-text" data-source-id="technology" x="502" y="241.5" text-anchor="middle" font-family="Manrope" font-size="13" font-weight="700" fill="#20231f">Technology</text></svg>
