<svg data-diagram-id="fixture-state" data-diagram-type="state" data-diagram-family="process-state" data-diagram-grammar="state-machine" width="1000" height="560" viewBox="0 0 1000 560" xmlns="http://www.w3.org/2000/svg" role="img" aria-label="state diagram"><defs><marker id="arrow-fixture-state" markerWidth="8" markerHeight="6" refX="7" refY="3" orient="auto"><path d="M0 0L8 3L0 6Z" fill="#6f756d"/></marker><marker id="arrow-accent-fixture-state" markerWidth="8" markerHeight="6" refX="7" refY="3" orient="auto"><path d="M0 0L8 3L0 6Z" fill="#f05a36"/></marker><marker id="arrow-link-fixture-state" markerWidth="8" markerHeight="6" refX="7" refY="3" orient="auto"><path d="M0 0L8 3L0 6Z" fill="#315f9d"/></marker></defs><rect width="1000" height="560" fill="#f5f5f2"/><g data-object-id="s1" data-source-id="s1"><path data-connector="true" data-connector-source="idle" data-connector-target="editing" d="M 220 280 L 242 280 Q 248 280 248 274 L 248 274 Q 248 268 254 268 L 300 268" fill="none" stroke="#6f756d" stroke-width="1.5" marker-end="url(#arrow-fixture-state)"/><g data-object-id="s1-label" data-source-id="s1"><rect data-label-mask="true" x="225" y="240" width="46" height="18" rx="3" fill="#f5f5f2"/><text x="248" y="253" text-anchor="middle" font-family="monospace" font-size="9" fill="#6f756d">open</text></g></g><g data-object-id="s2" data-source-id="s2"><path data-connector="true" data-connector-source="editing" data-connector-target="review" d="M 460 280 L 540 280" fill="none" stroke="#6f756d" stroke-width="1.5" marker-end="url(#arrow-fixture-state)"/><g data-object-id="s2-label" data-source-id="s2"><rect data-label-mask="true" x="513" y="252" width="54" height="18" rx="3" fill="#f5f5f2"/><text x="540" y="265" text-anchor="middle" font-family="monospace" font-size="9" fill="#6f756d">submit</text></g></g><g data-object-id="s3" data-source-id="s3"><path data-connector="true" data-connector-source="review" data-connector-target="editing" d="M 540 268 L 520 268 Q 512 268 512 276 L 512 284 Q 512 292 504 292 L 460 292" fill="none" stroke="#6f756d" stroke-width="1.5" stroke-dasharray="5 4" marker-end="url(#arrow-fixture-state)"/><g data-object-id="s3-label" data-source-id="s3"><rect data-label-mask="true" x="485" y="264" width="54" height="18" rx="3" fill="#f5f5f2"/><text x="512" y="277" text-anchor="middle" font-family="monospace" font-size="9" fill="#6f756d">revise</text></g></g><g data-object-id="s4" data-source-id="s4"><path data-connector="true" data-connector-source="review" data-connector-target="complete" d="M 700 292 L 722 292 Q 728 292 728 286 L 728 286 Q 728 280 734 280 L 780 280" fill="none" stroke="#f05a36" stroke-width="1.5" marker-end="url(#arrow-accent-fixture-state)"/><g data-object-id="s4-label" data-source-id="s4"><rect data-label-mask="true" x="698" y="252" width="60" height="18" rx="3" fill="#f5f5f2"/><text x="728" y="265" text-anchor="middle" font-family="monospace" font-size="9" fill="#f05a36">approve</text></g></g><rect data-object-id="complete" data-source-id="complete" x="780" y="244" width="160" height="72" rx="7" fill="#ffffff" stroke="#6f756d"/><rect data-object-id="editing" data-source-id="editing" x="300" y="244" width="160" height="72" rx="7" fill="#ffffff" stroke="#20231f"/><rect data-object-id="idle" data-source-id="idle" x="60" y="244" width="160" height="72" rx="7" fill="#fde8e1" stroke="#f05a36"/><rect data-object-id="review" data-source-id="review" x="540" y="244" width="160" height="72" rx="7" fill="#ffffff" stroke="#20231f"/><text data-object-id="complete-text" data-source-id="complete" x="860" y="292.5" text-anchor="middle" font-family="Manrope" font-size="13" font-weight="700" fill="#20231f">Complete</text><text data-object-id="editing-text" data-source-id="editing" x="380" y="292.5" text-anchor="middle" font-family="Manrope" font-size="13" font-weight="700" fill="#20231f">Editing</text><text data-object-id="idle-text" data-source-id="idle" x="140" y="292.5" text-anchor="middle" font-family="Manrope" font-size="13" font-weight="700" fill="#20231f">Idle</text><text data-object-id="review-text" data-source-id="review" x="620" y="292.5" text-anchor="middle" font-family="Manrope" font-size="13" font-weight="700" fill="#20231f">Review</text></svg>
