<svg data-diagram-id="fixture-tree" data-diagram-type="tree" data-diagram-family="hierarchy" data-diagram-grammar="branching-tree" width="1000" height="560" viewBox="0 0 1000 560" xmlns="http://www.w3.org/2000/svg" role="img" aria-label="tree diagram"><defs><marker id="arrow-fixture-tree" markerWidth="8" markerHeight="6" refX="7" refY="3" orient="auto"><path d="M0 0L8 3L0 6Z" fill="#6f756d"/></marker><marker id="arrow-accent-fixture-tree" markerWidth="8" markerHeight="6" refX="7" refY="3" orient="auto"><path d="M0 0L8 3L0 6Z" fill="#f05a36"/></marker><marker id="arrow-link-fixture-tree" markerWidth="8" markerHeight="6" refX="7" refY="3" orient="auto"><path d="M0 0L8 3L0 6Z" fill="#315f9d"/></marker></defs><rect width="1000" height="560" fill="#f5f5f2"/><g data-object-id="parent-1-growth" data-source-id="parent-1-growth"><path data-connector="true" data-connector-source="strategy" data-connector-target="growth" d="M 112 124 L 112 140 Q 112 148 120 148 L 128 148 Q 136 148 136 156 L 136 194" fill="none" stroke="#6f756d" stroke-width="1.5" marker-end="url(#arrow-fixture-tree)"/></g><g data-object-id="parent-2-trust" data-source-id="parent-2-trust"><path data-connector="true" data-connector-source="strategy" data-connector-target="trust" d="M 210 104 L 492 104 Q 500 104 500 112 L 500 216 Q 500 224 508 224 L 792 224" fill="none" stroke="#6f756d" stroke-width="1.5" marker-end="url(#arrow-fixture-tree)"/></g><g data-object-id="parent-3-acquire" data-source-id="parent-3-acquire"><path data-connector="true" data-connector-source="growth" data-connector-target="acquire" d="M 112 256 L 112 296 Q 112 304 120 304 L 128 304 Q 136 304 136 312 L 136 326" fill="none" stroke="#6f756d" stroke-width="1.5" marker-end="url(#arrow-fixture-tree)"/></g><g data-object-id="parent-4-retain" data-source-id="parent-4-retain"><path data-connector="true" data-connector-source="growth" data-connector-target="retain" d="M 210 236 L 296 236 Q 304 236 304 244 L 304 348 Q 304 356 312 356 L 424 356" fill="none" stroke="#6f756d" stroke-width="1.5" marker-end="url(#arrow-fixture-tree)"/></g><g data-object-id="parent-5-quality" data-source-id="parent-5-quality"><path data-connector="true" data-connector-source="trust" data-connector-target="quality" d="M 868 256 L 868 326" fill="none" stroke="#6f756d" stroke-width="1.5" marker-end="url(#arrow-fixture-tree)"/></g><rect data-object-id="acquire" data-source-id="acquire" x="60" y="326" width="150" height="62" rx="7" fill="#ffffff" stroke="#20231f"/><rect data-object-id="growth" data-source-id="growth" x="60" y="194" width="150" height="62" rx="7" fill="#ffffff" stroke="#20231f"/><rect data-object-id="quality" data-source-id="quality" x="792" y="326" width="150" height="62" rx="7" fill="#ffffff" stroke="#20231f"/><rect data-object-id="retain" data-source-id="retain" x="424" y="326" width="150" height="62" rx="7" fill="#ffffff" stroke="#20231f"/><rect data-object-id="strategy" data-source-id="strategy" x="60" y="62" width="150" height="62" rx="7" fill="#fde8e1" stroke="#f05a36"/><rect data-object-id="trust" data-source-id="trust" x="792" y="194" width="150" height="62" rx="7" fill="#ffffff" stroke="#20231f"/><text data-object-id="acquire-text" data-source-id="acquire" x="135" y="369.5" text-anchor="middle" font-family="Manrope" font-size="13" font-weight="700" fill="#20231f">Acquire</text><text data-object-id="growth-text" data-source-id="growth" x="135" y="237.5" text-anchor="middle" font-family="Manrope" font-size="13" font-weight="700" fill="#20231f">Growth</text><text data-object-id="quality-text" data-source-id="quality" x="867" y="369.5" text-anchor="middle" font-family="Manrope" font-size="13" font-weight="700" fill="#20231f">Quality</text><text data-object-id="retain-text" data-source-id="retain" x="499" y="369.5" text-anchor="middle" font-family="Manrope" font-size="13" font-weight="700" fill="#20231f">Retain</text><text data-object-id="strategy-text" data-source-id="strategy" x="135" y="105.5" text-anchor="middle" font-family="Manrope" font-size="13" font-weight="700" fill="#20231f">Strategy</text><text data-object-id="trust-text" data-source-id="trust" x="867" y="237.5" text-anchor="middle" font-family="Manrope" font-size="13" font-weight="700" fill="#20231f">Trust</text></svg>
